<svg version="1.2" xmlns="http://www.w3.org/2000/svg" viewBox="0 0 512 512" width="512" height="512">
	<title>fire-svg</title>
	<style>
		.s0 { fill: #ffffff } 
	</style>
	<g id="Layer">
		<g id="Layer">
			<path id="Layer" fill-rule="evenodd" class="s0" d="m448 320c0 105.7-85.8 191.7-191.4 192q-0.1 0-0.2 0c-0.1 0-0.3 0-0.4 0-105.9 0-192-86.1-192-192 0-3.6 0-7.3 0.2-10.9 3.2-109 56.9-136.2 59.1-137.4 3.1-1.5 6.7-1.4 9.7 0.2 3 1.6 5.1 4.6 5.6 7.9 0.1 0.7 9.9 65.8 53.4 75.1 0.2-28 1.5-70.4 11-108.2 13.7-54.2 53-111 100.1-144.7 3.3-2.3 7.5-2.6 11.1-0.8 3.6 1.8 5.8 5.5 5.8 9.5 0 49.8 25.1 83.5 54.1 122.6 31.4 42.3 66.9 90.1 72.8 166.5 0 0 1.1 14.9 1.1 20.2zm-128 102.5c0-2-0.1-3.8-0.3-5.7-2.2-30.9-15-49-27.3-66.6-8.6-12.2-17.5-24.8-22-40.3-10.2 11.9-18.2 26.9-21.6 40.9-3.8 15.8-4.1 33.3-4.1 48.5 0 5.9-4.8 10.7-10.7 10.7-17.9 0-29-12.3-35.2-25.5-3.3 7.1-6.3 18-6.7 33.8-0.1 1.6-0.1 2.9-0.1 4.2 0 37.6 28.7 68.2 64 68.2 35.3 0 64-30.6 64-68.2z"/>
		</g>
	</g>
	<g id="Layer">
	</g>
	<g id="Layer">
	</g>
	<g id="Layer">
	</g>
	<g id="Layer">
	</g>
	<g id="Layer">
	</g>
	<g id="Layer">
	</g>
	<g id="Layer">
	</g>
	<g id="Layer">
	</g>
	<g id="Layer">
	</g>
	<g id="Layer">
	</g>
	<g id="Layer">
	</g>
	<g id="Layer">
	</g>
	<g id="Layer">
	</g>
	<g id="Layer">
	</g>
	<g id="Layer">
	</g>
</svg>