<svg version="1.2" xmlns="http://www.w3.org/2000/svg" viewBox="0 0 460 460" width="460" height="460">
	<title>online-shopping-cart-svg</title>
	<style>
		.s0 { fill: #ffffff } 
	</style>
	<g id="Layer">
		<g id="Layer">
			<path id="Layer" class="s0" d="m17 55.2h48.7l69.4 251c2 7.4 8.8 12.5 16.4 12.5h213.3c6.8 0 12.8-4 15.6-10.2l77.7-178.5c2.3-5.4 1.7-11.3-1.4-16.2-3.1-4.9-8.5-7.7-14.2-7.7h-235.7c-9.4 0-17 7.7-17 17 0 9.3 7.6 17 17 17h209.7l-62.9 144.5h-189.3l-69.4-251c-2-7.4-8.8-12.5-16.4-12.5h-61.5c-9.4 0-17 7.6-17 17 0 9.4 7.7 17.1 17 17.1z"/>
			<path id="Layer" class="s0" d="m135.4 438.3c21.3 0 38.5-17.3 38.5-38.5 0-21.2-17.3-38.5-38.5-38.5-21.2 0-38.5 17.3-38.5 38.5 0 21.2 17.3 38.5 38.5 38.5z"/>
			<path id="Layer" class="s0" d="m376.3 438.3c0.9 0 2 0 2.8 0 10.2-0.9 19.5-5.4 26.4-13.3 6.8-7.6 9.9-17.6 9.4-28-1.4-21-19.8-37.1-41.1-35.7-21.3 1.4-37.1 20.1-35.7 41.1 1.3 20 18 35.9 38.2 35.9z"/>
		</g>
	</g>
</svg>